Coordinates
version=1
nRows=24
nColumns=24
inDegrees=yes

Units are S.I. units (second, meters, Newtons, ...)
If the header above contains a line with 'inDegrees', this indicates whether rotational values are in degrees (yes) or radians (no).

endheader
time	pelvis_tilt	pelvis_list	pelvis_rotation	pelvis_tx	pelvis_ty	pelvis_tz	hip_flexion_r	hip_adduction_r	hip_rotation_r	knee_angle_r	ankle_angle_r	subtalar_angle_r	mtp_angle_r	hip_flexion_l	hip_adduction_l	hip_rotation_l	knee_angle_l	ankle_angle_l	subtalar_angle_l	mtp_angle_l	lumbar_extension	lumbar_bending	lumbar_rotation
      0.00000000	     45.43103328	      3.04625796	     -0.46457962	      0.04110409	      0.55620319	     -0.02573551	     45.49174610	     -4.49644507	      4.77352657	   -110.39395940	     20.42562635	      0.00000000	      0.00000000	     45.66798212	     -2.68318008	     -4.78692995	   -110.38026497	     17.29982427	      0.00000000	      0.00000000	    -52.98643765	     -3.37025577	     -2.07222009
      0.01000000	     45.42252121	      3.04479035	     -0.46484693	      0.04120054	      0.55625243	     -0.02573599	     45.49282354	     -4.49639529	      4.77446055	   -110.39504153	     20.42571376	      0.00000000	      0.00000000	     45.66312667	     -2.68258207	     -4.78717534	   -110.38358571	     17.30018061	      0.00000000	      0.00000000	    -52.98808342	     -3.37179165	     -2.07177267
      0.02000000	     45.40946958	      3.04307250	     -0.47131765	      0.04133505	      0.55631463	     -0.02571602	     45.49327605	     -4.49763912	      4.77261035	   -110.39798889	     20.42625011	      0.00000000	      0.00000000	     45.66116097	     -2.68031061	     -4.78503520	   -110.38655779	     17.30174581	      0.00000000	      0.00000000	    -52.99150584	     -3.37643590	     -2.07089456
      0.03000000	     45.39014838	      3.03861806	     -0.48540888	      0.04144830	      0.55636281	     -0.02568419	     45.51259272	     -4.50052256	      4.76391440	   -110.40026369	     20.43140974	      0.00000000	      0.00000000	     45.67018005	     -2.67486847	     -4.77512951	   -110.38883617	     17.31113805	      0.00000000	      0.00000000	    -53.00419704	     -3.40067611	     -2.06728677
      0.04000000	     45.27815985	      3.03456691	     -0.48881698	      0.04169464	      0.55626194	     -0.02560357	     45.63748085	     -4.49609663	      4.74877825	   -110.41988523	     20.46002317	      0.00000000	      0.00000000	     45.78464387	     -2.66930893	     -4.75243088	   -110.40603376	     17.37654764	      0.00000000	      0.00000000	    -53.02821286	     -3.56529393	     -2.04680684
      0.05000000	     45.26319880	      3.03566080	     -0.49391397	      0.04186863	      0.55635847	     -0.02555873	     45.63645329	     -4.49669849	      4.74590386	   -110.42299976	     20.45995991	      0.00000000	      0.00000000	     45.78330356	     -2.66699081	     -4.75153596	   -110.40831203	     17.37666589	      0.00000000	      0.00000000	    -53.02729548	     -3.56875174	     -2.04636228
      0.06000000	     45.08997933	      3.04700563	     -0.49932104	      0.04216523	      0.55618041	     -0.02547554	     45.84405067	     -4.52502114	      4.72979602	   -110.44949630	     20.49386073	      0.00000000	      0.00000000	     45.96893415	     -2.63552258	     -4.72237595	   -110.42397830	     17.42241242	      0.00000000	      0.00000000	    -52.95219853	     -3.76430201	     -2.02477143
      0.07000000	     45.07337007	      3.04932209	     -0.49668942	      0.04233634	      0.55628795	     -0.02543783	     45.84098528	     -4.52127225	      4.72709372	   -110.45262380	     20.49266447	      0.00000000	      0.00000000	     45.96989664	     -2.63206497	     -4.72831892	   -110.42543001	     17.42146661	      0.00000000	      0.00000000	    -52.94945424	     -3.76548187	     -2.02429285
      0.08000000	     44.92062289	      3.06763323	     -0.47977642	      0.04262315	      0.55614676	     -0.02540666	     46.01262543	     -4.55266436	      4.71356962	   -110.47734541	     20.50876516	      0.00000000	      0.00000000	     46.14072738	     -2.59333298	     -4.71422251	   -110.43999775	     17.42623720	      0.00000000	      0.00000000	    -52.87782180	     -3.87798556	     -2.00328099
      0.09000000	     44.90523154	      3.06730307	     -0.47938977	      0.04278730	      0.55622893	     -0.02538356	     46.01122840	     -4.55499859	      4.71338600	   -110.47931555	     20.50854841	      0.00000000	      0.00000000	     46.13783443	     -2.59395323	     -4.71292869	   -110.44307675	     17.42587710	      0.00000000	      0.00000000	    -52.87889071	     -3.88063302	     -2.00262071
      0.10000000	     44.79974726	      3.06281464	     -0.46173973	      0.04298462	      0.55611841	     -0.02536182	     46.13136564	     -4.57467842	      4.67889066	   -110.49531342	     20.52880304	      0.00000000	      0.00000000	     46.26261234	     -2.57203500	     -4.67887697	   -110.46427705	     17.44207938	      0.00000000	      0.00000000	    -52.91250841	     -3.99149845	     -1.97986832
      0.11000000	     44.78670027	      3.06383860	     -0.45767837	      0.04312304	      0.55615911	     -0.02534372	     46.13041246	     -4.57553721	      4.67903379	   -110.49933489	     20.52864815	      0.00000000	      0.00000000	     46.26428493	     -2.57438270	     -4.67899404	   -110.46588947	     17.44229657	      0.00000000	      0.00000000	    -52.91463234	     -3.99467777	     -1.97900225
      0.12000000	     44.68188781	      3.06274511	     -0.43574622	      0.04329831	      0.55597823	     -0.02531196	     46.25901451	     -4.58614009	      4.65676235	   -110.52852579	     20.54312841	      0.00000000	      0.00000000	     46.40179070	     -2.56877551	     -4.66048868	   -110.49340888	     17.45456805	      0.00000000	      0.00000000	    -52.97195447	     -4.08837690	     -1.95809044
      0.13000000	     44.66997597	      3.05886790	     -0.43266812	      0.04342021	      0.55599274	     -0.02535303	     46.26148705	     -4.58851487	      4.65828353	   -110.53193502	     20.54308040	      0.00000000	      0.00000000	     46.40200283	     -2.56972054	     -4.66138993	   -110.49788665	     17.45435454	      0.00000000	      0.00000000	    -52.97486218	     -4.09144556	     -1.95736199
      0.14000000	     44.57328503	      3.05621223	     -0.41430117	      0.04357024	      0.55574931	     -0.02536626	     46.39406815	     -4.59668915	      4.64409295	   -110.56962978	     20.54811288	      0.00000000	      0.00000000	     46.54122899	     -2.57229567	     -4.65453573	   -110.53564225	     17.46240549	      0.00000000	      0.00000000	    -53.05295481	     -4.16056321	     -1.94289318
      0.15000000	     44.56155494	      3.05186013	     -0.40988783	      0.04368288	      0.55574881	     -0.02542826	     46.39706240	     -4.59996600	      4.64738183	   -110.57345109	     20.54762561	      0.00000000	      0.00000000	     46.54483377	     -2.57471983	     -4.65590375	   -110.54106041	     17.46233102	      0.00000000	      0.00000000	    -53.05678375	     -4.16320905	     -1.94245326
      0.16000000	     44.56085593	      3.05176382	     -0.40910277	      0.04373058	      0.55573336	     -0.02546637	     46.39770712	     -4.60008540	      4.64754977	   -110.57377061	     20.54762478	      0.00000000	      0.00000000	     46.54568035	     -2.57519172	     -4.65608342	   -110.54145692	     17.46241584	      0.00000000	      0.00000000	    -53.05773167	     -4.16358162	     -1.94234960
      0.17000000	     44.43663629	      3.04269910	     -0.36819999	      0.04390289	      0.55535261	     -0.02558678	     46.57648094	     -4.61904186	      4.63518267	   -110.63370112	     20.55046944	      0.00000000	      0.00000000	     46.73557317	     -2.59078568	     -4.66111584	   -110.60810039	     17.47211877	      0.00000000	      0.00000000	    -53.21566411	     -4.20363486	     -1.93459357
      0.18000000	     44.29521075	      3.03816213	     -0.35163030	      0.04412460	      0.55511950	     -0.02568362	     46.74540486	     -4.62494861	      4.63446795	   -110.66044736	     20.52435174	      0.00000000	      0.00000000	     46.91781607	     -2.59674430	     -4.65992271	   -110.64207138	     17.44621923	      0.00000000	      0.00000000	    -53.17680679	     -4.18911690	     -1.97985857
      0.19000000	     44.28922893	      3.03062645	     -0.34350711	      0.04418306	      0.55511295	     -0.02582465	     46.74635293	     -4.62515530	      4.63614304	   -110.66156064	     20.52402251	      0.00000000	      0.00000000	     46.92183294	     -2.59621048	     -4.66710198	   -110.64647111	     17.44641658	      0.00000000	      0.00000000	    -53.17721114	     -4.18925990	     -1.98098580
      0.20000000	     44.27742029	      3.02653255	     -0.32579118	      0.04427684	      0.55508257	     -0.02594565	     46.75167653	     -4.62959327	      4.63991486	   -110.66468711	     20.52445820	      0.00000000	      0.00000000	     46.94000775	     -2.60366452	     -4.67691695	   -110.65794744	     17.44905043	      0.00000000	      0.00000000	    -53.18834043	     -4.18577464	     -1.98240368
      0.21000000	     44.17285682	      3.01146946	     -0.28515442	      0.04444052	      0.55484995	     -0.02614690	     46.88086665	     -4.64863228	      4.61818651	   -110.69863166	     20.53623592	      0.00000000	      0.00000000	     47.08987527	     -2.60579889	     -4.67784018	   -110.70259528	     17.45464633	      0.00000000	      0.00000000	    -53.27080507	     -4.11596663	     -2.01358098
      0.22000000	     44.16391480	      3.00412075	     -0.27535553	      0.04453742	      0.55487382	     -0.02629007	     46.88039732	     -4.65179383	      4.62401046	   -110.69839265	     20.53575613	      0.00000000	      0.00000000	     47.09158744	     -2.60904336	     -4.68034184	   -110.70735382	     17.45441688	      0.00000000	      0.00000000	    -53.27071662	     -4.11425062	     -2.01525607
      0.23000000	     44.15083828	      2.99915958	     -0.25452747	      0.04461514	      0.55487478	     -0.02643979	     46.88072328	     -4.65335218	      4.62995063	   -110.69797793	     20.53580907	      0.00000000	      0.00000000	     47.10828118	     -2.61503135	     -4.68946442	   -110.71726117	     17.45619825	      0.00000000	      0.00000000	    -53.27617197	     -4.10511537	     -2.01856954
